<svg id="Flash_Sale_Rating_Icon" data-name="Flash Sale Rating Icon" xmlns="http://www.w3.org/2000/svg" width="16" height="16" viewBox="0 0 16 16">
  <g id="Star">
    <rect id="Star_Frame_Background_" data-name="Star [Frame Background]" width="16" height="16" fill="none"/>
    <path id="Vector" d="M13.639,6.177,10.827,8.6l.857,3.629a1.025,1.025,0,0,1-1.531,1.114L7,11.4,3.838,13.347a1.025,1.025,0,0,1-1.529-1.114L3.169,8.6.356,6.177a1.029,1.029,0,0,1,.583-1.8l3.687-.3L6.049.634a1.023,1.023,0,0,1,1.892,0L9.362,4.077l3.688.3a1.029,1.029,0,0,1,.586,1.8Z" transform="translate(1.004 1.001)" fill="#f7ce46"/>
  </g>
</svg>
