<svg id="ShoppingBag" xmlns="http://www.w3.org/2000/svg" width="24" height="24" viewBox="0 0 24 24">
  <rect id="ShoppingBag_Frame_Background_" data-name="ShoppingBag [Frame Background]" width="24" height="24" fill="none"/>
  <path id="Vector" d="M0,0H24V24H0Z" fill="none"/>
  <path id="Vector-2" data-name="Vector" d="M.75,0h16.5A.75.75,0,0,1,18,.75v13.5a.75.75,0,0,1-.75.75H.75A.75.75,0,0,1,0,14.25V.75A.75.75,0,0,1,.75,0Z" transform="translate(3 4.5)" fill="none" stroke="#8a959d" stroke-linecap="round" stroke-linejoin="round" stroke-width="1.5"/>
  <path id="Vector-3" data-name="Vector" d="M7.5,0A3.75,3.75,0,0,1,6.4,2.652,3.75,3.75,0,0,1,3.75,3.75,3.75,3.75,0,0,1,1.1,2.652,3.75,3.75,0,0,1,0,0" transform="translate(8.25 8.25)" fill="none" stroke="#8a959d" stroke-linecap="round" stroke-linejoin="round" stroke-width="1.5"/>
</svg>
